<svg id="vector" xmlns="http://www.w3.org/2000/svg" width="24" height="24" viewBox="0 0 24 24"><path fill="#000000" d="M11.179,18.152C11.483,18.198 11.794,18.222 12.111,18.222C15.486,18.222 18.222,15.486 18.222,12.111C18.222,8.736 15.486,6 12.111,6C11.885,6 11.661,6.012 11.441,6.036C13.115,7.305 14.222,9.502 14.222,12C14.222,14.626 12.999,16.92 11.179,18.152ZM12,20C16.418,20 20,16.418 20,12C20,7.582 16.418,4 12,4C7.582,4 4,7.582 4,12C4,16.418 7.582,20 12,20Z" fill-rule="evenodd" id="path_0"/></svg>