<svg id="vector" xmlns="http://www.w3.org/2000/svg" width="24" height="24" viewBox="0 0 24 24"><path fill="#000000" d="M3.002,12.011C2.999,12.007 2.999,12.002 3.002,11.998L7.528,4.007C7.53,4.003 7.535,4 7.539,4H16.51C16.515,4 16.519,4.003 16.522,4.007L20.998,11.998C21.001,12.002 21.001,12.007 20.998,12.011L16.522,19.993C16.519,19.997 16.515,20 16.51,20H7.539C7.535,20 7.53,19.997 7.528,19.993L3.002,12.011ZM16.17,12C16.17,14.379 14.304,16.308 12.001,16.308C9.699,16.308 7.833,14.379 7.833,12C7.833,9.621 9.699,7.692 12.001,7.692C14.304,7.692 16.17,9.621 16.17,12Z" fill-rule="evenodd" id="path_0"/></svg>